<svg width="73" height="73" viewBox="0 0 73 73" fill="none" xmlns="http://www.w3.org/2000/svg">
<path d="M3.42206 47.267V70.7183C3.42206 71.0208 3.54223 71.3109 3.75614 71.5248C3.97005 71.7387 4.26017 71.8589 4.56269 71.8589H34.2189C34.5214 71.8589 34.8116 71.7387 35.0255 71.5248C35.2394 71.3109 35.3596 71.0208 35.3596 70.7183V47.267C36.0491 46.8689 36.6225 46.2973 37.0227 45.6089C37.4229 44.9206 37.636 44.1395 37.6408 43.3433V42.2026C37.6518 42.1117 37.6518 42.0198 37.6408 41.9289L35.3596 32.8039C35.2971 32.5508 35.1499 32.3268 34.9423 32.169C34.7348 32.0113 34.4795 31.9294 34.2189 31.937H4.56269C4.30213 31.9294 4.04683 32.0113 3.83929 32.169C3.63176 32.3268 3.48451 32.5508 3.42206 32.8039L1.14081 41.9289C1.12982 42.0198 1.12982 42.1117 1.14081 42.2026V43.3433C1.14562 44.1395 1.35871 44.9206 1.75891 45.6089C2.15912 46.2973 2.73249 46.8689 3.42206 47.267ZM7.98456 43.3433C7.98456 43.9483 7.74422 44.5285 7.3164 44.9563C6.88858 45.3842 6.30834 45.6245 5.70331 45.6245C5.09829 45.6245 4.51804 45.3842 4.09022 44.9563C3.66241 44.5285 3.42206 43.9483 3.42206 43.3433H7.98456ZM14.8283 43.3433C14.8283 43.9483 14.588 44.5285 14.1601 44.9563C13.7323 45.3842 13.1521 45.6245 12.5471 45.6245C11.942 45.6245 11.3618 45.3842 10.934 44.9563C10.5062 44.5285 10.2658 43.9483 10.2658 43.3433H14.8283ZM21.6721 43.3433C21.6721 43.9483 21.4317 44.5285 21.0039 44.9563C20.5761 45.3842 19.9958 45.6245 19.3908 45.6245C18.7858 45.6245 18.2055 45.3842 17.7777 44.9563C17.3499 44.5285 17.1096 43.9483 17.1096 43.3433H21.6721ZM28.5158 43.3433C28.5158 43.9483 28.2755 44.5285 27.8476 44.9563C27.4198 45.3842 26.8396 45.6245 26.2346 45.6245C25.6295 45.6245 25.0493 45.3842 24.6215 44.9563C24.1937 44.5285 23.9533 43.9483 23.9533 43.3433H28.5158ZM23.9533 41.062V34.2183H27.5121L28.3675 41.062H23.9533ZM21.6721 41.062H17.1096V34.2183H21.6721V41.062ZM14.8283 41.062H10.4141L11.2696 34.2183H14.8283V41.062ZM13.6877 69.5776V55.8901H18.2502V69.5776H13.6877ZM20.5314 69.5776V55.8901H25.0939V69.5776H20.5314ZM33.0783 69.5776H27.3752V54.7495C27.3752 54.447 27.255 54.1569 27.0411 53.943C26.8272 53.7291 26.5371 53.6089 26.2346 53.6089H12.5471C12.2445 53.6089 11.9544 53.7291 11.7405 53.943C11.5266 54.1569 11.4064 54.447 11.4064 54.7495V69.5776H5.70331V47.9058C6.35286 47.9021 6.99414 47.7598 7.58426 47.4883C8.17438 47.2169 8.69973 46.8225 9.12519 46.3317C9.55334 46.8172 10.0799 47.206 10.6699 47.4723C11.2599 47.7386 11.8998 47.8764 12.5471 47.8764C13.1944 47.8764 13.8343 47.7386 14.4242 47.4723C15.0142 47.206 15.5408 46.8172 15.9689 46.3317C16.3971 46.8172 16.9236 47.206 17.5136 47.4723C18.1036 47.7386 18.7435 47.8764 19.3908 47.8764C20.0381 47.8764 20.678 47.7386 21.268 47.4723C21.858 47.206 22.3845 46.8172 22.8127 46.3317C23.2408 46.8172 23.7674 47.206 24.3574 47.4723C24.9474 47.7386 25.5873 47.8764 26.2346 47.8764C26.8819 47.8764 27.5218 47.7386 28.1117 47.4723C28.7017 47.206 29.2283 46.8172 29.6564 46.3317C30.0819 46.8225 30.6072 47.2169 31.1974 47.4883C31.7875 47.7598 32.4288 47.9021 33.0783 47.9058V69.5776ZM33.0783 45.6245C32.4733 45.6245 31.893 45.3842 31.4652 44.9563C31.0374 44.5285 30.7971 43.9483 30.7971 43.3433H35.3596C35.3596 43.9483 35.1192 44.5285 34.6914 44.9563C34.2636 45.3842 33.6833 45.6245 33.0783 45.6245ZM35.0402 41.062H30.6602L29.8047 34.2183H33.3292L35.0402 41.062ZM5.45237 34.2183H8.9769L8.12144 41.062H3.74144L5.45237 34.2183Z" fill="#007396"/>
<path d="M15.9688 61.5938C16.5987 61.5938 17.1094 61.0831 17.1094 60.4531C17.1094 59.8232 16.5987 59.3125 15.9688 59.3125C15.3388 59.3125 14.8281 59.8232 14.8281 60.4531C14.8281 61.0831 15.3388 61.5938 15.9688 61.5938Z" fill="#007396"/>
<path d="M22.8125 61.5938C23.4424 61.5938 23.9531 61.0831 23.9531 60.4531C23.9531 59.8232 23.4424 59.3125 22.8125 59.3125C22.1826 59.3125 21.6719 59.8232 21.6719 60.4531C21.6719 61.0831 22.1826 61.5938 22.8125 61.5938Z" fill="#007396"/>
<path d="M42.9674 1.42525C36.6364 2.41885 30.9219 5.78747 26.9869 10.8456C23.0519 15.9036 21.1921 22.2711 21.786 28.652C21.8027 28.8044 21.8501 28.9519 21.9251 29.0856C22.0002 29.2193 22.1014 29.3365 22.2228 29.4302C22.3442 29.5239 22.4832 29.5922 22.6316 29.6309C22.7799 29.6697 22.9346 29.6781 23.0863 29.6557C23.3813 29.6132 23.6479 29.4569 23.8291 29.2202C24.0103 28.9836 24.0917 28.6855 24.0558 28.3896C23.6335 24.0005 24.4923 19.583 26.5282 15.6717C28.5641 11.7605 31.6899 8.52305 35.5274 6.35124C39.3649 4.17943 43.7495 3.1663 48.1508 3.43445C52.552 3.70261 56.7812 5.24055 60.3267 7.86217C63.8721 10.4838 66.5818 14.0767 68.1278 18.2062C69.6738 22.3357 69.9899 26.8248 69.0379 31.1302C68.0858 35.4356 65.9064 39.3729 62.7634 42.4655C59.6204 45.5581 55.6484 47.6736 51.3282 48.5559L50.986 46.3545C50.9511 46.1677 50.87 45.9926 50.7503 45.845C50.6305 45.6975 50.4757 45.5822 50.3001 45.5097C50.1244 45.4372 49.9335 45.4097 49.7445 45.4297C49.5555 45.4498 49.3745 45.5167 49.218 45.6245L42.9674 50.0387C42.7939 50.1608 42.6578 50.3289 42.5746 50.5241C42.4914 50.7192 42.4642 50.9337 42.4962 51.1435C42.5282 51.3533 42.6181 51.5499 42.7557 51.7114C42.8934 51.8729 43.0733 51.9928 43.2754 52.0576L50.5525 54.4073C50.6698 54.424 50.7889 54.424 50.9061 54.4073C51.0715 54.4092 51.2352 54.3751 51.3861 54.3074C51.5369 54.2396 51.6713 54.14 51.7798 54.0152C51.8883 53.8904 51.9683 53.7435 52.0144 53.5847C52.0605 53.426 52.0716 53.259 52.0468 53.0956L51.6932 50.8143C58.0449 49.4509 63.6204 45.6774 67.2469 40.2873C70.8734 34.8973 72.2682 28.3109 71.1379 21.9136C70.0077 15.5162 66.4405 9.80649 61.1866 5.98539C55.9328 2.16429 49.4018 0.529631 42.9674 1.42525ZM46.1497 50.5634L49.0469 48.5217L49.526 51.647L46.1497 50.5634Z" fill="#007396"/>
<path d="M55.8906 35.3598V25.9496C55.8859 24.8169 55.5255 23.7143 54.8604 22.7974C54.1952 21.8805 53.2589 21.1957 52.1836 20.8396C52.9096 20.0165 53.3826 19.0013 53.5459 17.916C53.7092 16.8307 53.5559 15.7213 53.1043 14.7209C52.6527 13.7206 51.9221 12.8718 51.0001 12.2764C50.078 11.681 49.0038 11.3643 47.9062 11.3643C46.8087 11.3643 45.7345 11.681 44.8124 12.2764C43.8904 12.8718 43.1598 13.7206 42.7082 14.7209C42.2566 15.7213 42.1033 16.8307 42.2666 17.916C42.4299 19.0013 42.9029 20.0165 43.6289 20.8396C42.5536 21.1957 41.6173 21.8805 40.9521 22.7974C40.287 23.7143 39.9266 24.8169 39.9219 25.9496V35.3598C39.9219 35.6623 40.042 35.9524 40.256 36.1663C40.4699 36.3803 40.76 36.5004 41.0625 36.5004H54.75C55.0525 36.5004 55.3426 36.3803 55.5565 36.1663C55.7705 35.9524 55.8906 35.6623 55.8906 35.3598ZM47.9062 13.6879C48.583 13.6879 49.2446 13.8886 49.8073 14.2646C50.3701 14.6406 50.8087 15.175 51.0676 15.8003C51.3266 16.4256 51.3944 17.1136 51.2624 17.7774C51.1303 18.4412 50.8044 19.0509 50.3259 19.5294C49.8473 20.008 49.2376 20.3339 48.5738 20.4659C47.91 20.598 47.222 20.5302 46.5968 20.2712C45.9715 20.0122 45.4371 19.5736 45.0611 19.0109C44.6851 18.4482 44.4844 17.7866 44.4844 17.1098C44.4844 16.2023 44.8449 15.3319 45.4866 14.6902C46.1283 14.0484 46.9987 13.6879 47.9062 13.6879ZM53.6094 34.2192H42.2031V25.9496C42.2031 25.1177 42.5336 24.3199 43.1219 23.7317C43.7101 23.1434 44.5079 22.8129 45.3398 22.8129H50.4727C51.3046 22.8129 52.1024 23.1434 52.6906 23.7317C53.2789 24.3199 53.6094 25.1177 53.6094 25.9496V34.2192Z" fill="#007396"/>
<path d="M59.3125 17.6797C59.3481 17.1237 59.2174 16.5698 58.9371 16.0883C58.6568 15.6069 58.2395 15.2198 57.7384 14.9764C57.2141 12.7323 55.9687 10.7219 54.1929 9.25309C52.4171 7.78425 50.2089 6.93794 47.9062 6.84375C45.8275 6.89603 43.8136 7.57838 42.1312 8.80047C40.4488 10.0226 39.1772 11.7268 38.4847 13.6875C37.3441 13.8814 36.5 15.2273 36.5 17.1094C36.5 18.9914 37.4581 20.5312 38.7812 20.5312C40.1044 20.5312 41.0625 19.0941 41.0625 17.1094C41.0813 16.3157 40.8968 15.5304 40.5264 14.8281C41.0127 13.2293 41.9843 11.8213 43.3066 10.7994C44.629 9.77753 46.2364 9.19235 47.9062 9.125C49.7013 9.21714 51.4172 9.89325 52.7926 11.0504C54.168 12.2076 55.1277 13.7825 55.5256 15.5353C55.012 16.1303 54.7359 16.8938 54.75 17.6797C54.6763 18.36 54.8748 19.0418 55.3023 19.5761C55.7298 20.1105 56.3514 20.4538 57.0312 20.5312C57.7111 20.4538 58.3327 20.1105 58.7602 19.5761C59.1877 19.0418 59.3862 18.36 59.3125 17.6797Z" fill="#007396"/>
</svg>
