<svg width="73" height="73" viewBox="0 0 73 73" fill="none" xmlns="http://www.w3.org/2000/svg">
<path d="M71.0752 36.9755C72.1365 36.9755 73 36.112 73 35.0507V29.6327C73 28.5714 72.1365 27.7079 71.0752 27.7079H70.3602L60.6683 3.28826C60.1661 2.02359 58.9146 1.17383 57.5541 1.17383H15.4459C14.082 1.17383 12.8677 1.98781 12.3498 3.2452C12.3434 3.25989 12.3364 3.27629 12.3316 3.2884L10.6938 7.41519C10.4759 7.96411 10.7443 8.58575 11.2933 8.80347C11.842 9.02133 12.4638 8.753 12.6818 8.20407L14.3114 4.09796C14.3161 4.08727 14.3208 4.07601 14.3243 4.06774C14.5082 3.61605 14.959 3.3125 15.4461 3.3125H57.5541C58.0461 3.3125 58.4988 3.6199 58.6804 4.07729L68.0591 27.7078H65.4515L58.5479 10.3139C58.3862 9.9066 57.9924 9.63912 57.5539 9.63912C57.1155 9.63912 56.7217 9.9066 56.56 10.3139L49.6563 27.7078H44.3973L37.4936 10.3139C37.3319 9.9066 36.9381 9.63912 36.4997 9.63912C36.0613 9.63912 35.6675 9.9066 35.5058 10.3139L28.6022 27.7078H23.3432L16.44 10.3141C16.2783 9.90674 15.8843 9.63926 15.4461 9.63926C15.0078 9.63926 14.6138 9.90674 14.4521 10.3141L7.54851 27.7079H4.94076L10.8408 12.8423C11.0586 12.2934 10.7903 11.6717 10.2412 11.454C9.69189 11.236 9.07068 11.5045 8.85282 12.0534L2.63969 27.7079H1.9248C0.863453 27.7079 0 28.5714 0 29.6327V35.0507C0 36.112 0.863453 36.9755 1.9248 36.9755H8.686V40.5362H6.68991C5.62856 40.5362 4.7651 41.3997 4.7651 42.461V53.6315C4.0639 53.2789 3.23011 52.9819 2.13425 52.8647C1.58975 52.8059 1.04453 52.9824 0.637752 53.3482C0.232545 53.7123 0 54.2337 0 54.7785V68.6173C0 70.3861 1.43904 71.8253 3.20801 71.8253H69.792C71.5608 71.8253 73 70.3861 73 68.6173V54.7785C73 54.2337 72.7675 53.7122 72.362 53.348C71.9552 52.9826 71.4091 52.8064 70.8657 52.8645C69.7699 52.9819 68.9361 53.2786 68.2349 53.6312V42.461C68.2349 41.3997 67.3714 40.5362 66.3101 40.5362H64.314V36.9755H71.0752ZM57.5541 13.6071L63.1464 27.6972H51.9617L57.5541 13.6071ZM36.5 13.6071L42.0923 27.6972H30.9077L36.5 13.6071ZM15.4459 13.6071L21.0383 27.6972H9.85357L15.4459 13.6071ZM6.90378 42.6749H17.5971V52.8806C17.597 52.8806 17.597 52.8806 17.5968 52.8806C14.4567 53.2619 13.6504 55.0413 11.3646 55.5235C9.87068 55.8383 8.28094 55.688 6.90378 54.9148V42.6749ZM10.8247 40.5362V36.9755H13.6762V40.5362H10.8247ZM70.8613 55.02V68.6171C70.8613 69.2068 70.3817 69.6865 69.792 69.6865H3.20801C2.6183 69.6865 2.13867 69.2068 2.13867 68.6171V55.02C3.69577 55.2439 4.45115 55.9535 5.68573 56.6818C7.59799 57.8043 9.80011 58.0527 11.8605 57.6045C14.9505 56.9331 15.3685 54.9904 18.6792 54.951C18.6806 54.951 18.6822 54.9507 18.6836 54.9507C18.7175 54.9503 18.7495 54.9487 18.7841 54.9487C22.7663 54.9487 22.856 57.8003 27.6416 57.8003C30.1704 57.8003 31.4872 56.9524 32.6491 56.2043C33.6953 55.5306 34.599 54.9487 36.4987 54.9487C40.4811 54.9487 40.5705 57.8003 45.3564 57.8003C50.1414 57.8003 50.2324 54.9487 54.2142 54.9487C54.2496 54.9487 54.2823 54.9503 54.317 54.9507C54.3183 54.9507 54.3194 54.9509 54.3207 54.951C57.6773 54.9915 58.0714 56.9937 61.267 57.6313C62.2251 57.8227 63.3246 57.8476 64.2861 57.727C67.5832 57.3167 68.254 55.3947 70.8613 55.02ZM66.0962 42.6749V54.9144C64.7273 55.6832 63.1273 55.845 61.611 55.5189C59.3144 55.0243 58.7174 53.3543 55.4029 52.8808V42.6749H66.0962ZM59.3238 40.5362V36.9755H62.1753V40.5362H59.3238ZM49.5459 34.8368C48.9552 34.8368 48.4766 35.3154 48.4766 35.9061C48.4766 36.4968 48.9552 36.9755 49.5459 36.9755H57.1851V40.5362H55.189C54.1276 40.5362 53.2642 41.3997 53.2642 42.461V52.8544C49.3394 53.2245 49.0661 55.6618 45.3564 55.6618C41.3747 55.6618 41.2841 52.8102 36.4987 52.8102C31.7149 52.8102 31.6215 55.6618 27.6415 55.6618C23.9102 55.6618 23.6832 53.2275 19.7357 52.8546V42.461C19.7357 41.3997 18.8722 40.5362 17.8109 40.5362H15.8148V36.9755H44.5557C45.1464 36.9755 45.625 36.4968 45.625 35.9061C45.625 35.3154 45.1464 34.8368 44.5557 34.8368C41.3663 34.8368 3.67766 34.8368 2.13867 34.8368V29.8466H70.8613V34.8368C68.2547 34.8368 52.759 34.8368 49.5459 34.8368Z" fill="#007396"/>
<path d="M47.0272 25.9332C47.4654 25.9332 47.8594 25.6658 48.0211 25.2584L55.1885 7.20004C55.3192 6.87068 55.2783 6.49798 55.0793 6.20498C54.8802 5.91184 54.5489 5.73633 54.1946 5.73633H39.8599C39.5056 5.73633 39.1742 5.91184 38.9752 6.20498C38.7762 6.49812 38.7352 6.87082 38.866 7.20004L46.0332 25.2584C46.1949 25.6658 46.5889 25.9332 47.0272 25.9332ZM52.6196 7.87472L47.0272 21.965L41.4348 7.87472H52.6196Z" fill="#007396"/>
<path d="M25.973 25.9329C26.4112 25.9329 26.8052 25.6655 26.9669 25.2581L34.1341 7.20004C34.2649 6.87068 34.2239 6.49798 34.0249 6.20498C33.8259 5.91198 33.4945 5.73633 33.1402 5.73633H18.8057C18.4514 5.73633 18.12 5.91184 17.921 6.20498C17.722 6.49812 17.681 6.87082 17.8118 7.20004L24.979 25.2581C25.1407 25.6655 25.5345 25.9329 25.973 25.9329ZM31.5653 7.87472L25.973 21.9649L20.3806 7.87472H31.5653Z" fill="#007396"/>
</svg>
