<svg width="71" height="71" viewBox="0 0 71 71" fill="none" xmlns="http://www.w3.org/2000/svg">
<g clip-path="url(#clip0_3_312)">
<path d="M69.0018 45.9693H68.6274V43.6515C68.6274 42.5873 67.7615 41.7215 66.6973 41.7215H64.7384L56.2853 33.2684C56.2493 33.2324 56.2108 33.2009 56.1713 33.1711V21.5974H62.2721C62.6719 21.5974 63.0367 21.3698 63.2124 21.0105C63.388 20.6514 63.3439 20.2237 63.0985 19.9081L58.9115 14.5235C58.7132 14.2685 58.4083 14.1193 58.0852 14.1193H55.8725L21.8291 0.606476C21.7961 0.593217 21.7622 0.581633 21.7274 0.571724C21.7164 0.568514 21.7052 0.566421 21.694 0.563629C21.6733 0.558465 21.6525 0.553022 21.6312 0.549114C21.6111 0.545346 21.591 0.542973 21.571 0.540461C21.5585 0.538926 21.5462 0.536833 21.5337 0.535716C21.5091 0.533483 21.4848 0.532646 21.4604 0.532227C21.4534 0.532087 21.4466 0.53125 21.4395 0.53125H21.424C21.4205 0.53125 21.417 0.53125 21.4137 0.53125H18.8371C18.2944 0.53125 17.8416 0.946178 17.7943 1.48685L16.6906 14.1195H9.62736C9.59289 12.7674 8.4846 11.6774 7.12426 11.6774H2.50632C1.12434 11.6772 0 12.8016 0 14.1835V21.6829C0 23.0649 1.12434 24.1893 2.50632 24.1893H7.12426C8.50623 24.1893 9.63057 23.0649 9.63057 21.6829V21.5975H16.2725L15.0298 62.9439H14.0748C12.0089 62.9439 10.3283 64.6246 10.3283 66.6904V69.4223C10.3283 70.0004 10.7969 70.469 11.375 70.469H13.2542C13.8323 70.469 14.301 70.0004 14.301 69.4223C14.301 68.8442 13.8323 68.3755 13.2542 68.3755H12.4217V66.6904C12.4217 65.7789 13.1633 65.0374 14.0748 65.0374H17.1695H27.3248C28.2363 65.0374 28.9778 65.7789 28.9778 66.6904V68.3755H17.4411C16.863 68.3755 16.3943 68.8442 16.3943 69.4223C16.3943 70.0004 16.863 70.469 17.4411 70.469H30.0246C30.6026 70.469 31.0713 70.0004 31.0713 69.4223V66.6904C31.0713 64.6246 29.3907 62.9439 27.3248 62.9439H25.2516L24.0089 21.5975H29.7975V26.8183C29.7975 28.3141 31.0145 29.5311 32.5104 29.5311H40.5414C42.0372 29.5311 43.2543 28.3141 43.2543 26.8183V21.5975H54.0774V33.0838C53.9877 33.1314 53.9032 33.1928 53.8276 33.2684L45.3745 41.7215H43.2723C42.2081 41.7215 41.3422 42.5873 41.3422 43.6515V45.9693H40.3676C39.2658 45.9693 38.3695 46.8656 38.3695 47.9674V49.9364C38.3695 51.0382 39.2658 51.9345 40.3676 51.9345H43.1762C43.7543 51.9345 44.223 51.4658 44.223 50.8877C44.223 50.3096 43.7543 49.841 43.1762 49.841H40.4629V48.0628H68.9061V49.841H47.3636C46.7855 49.841 46.3169 50.3096 46.3169 50.8877C46.3169 51.4658 46.7855 51.9345 47.3636 51.9345H69.0018C70.1036 51.9345 71 51.0382 71 49.9364V47.9674C71 46.8657 70.1036 45.9693 69.0018 45.9693ZM19.7964 2.62473H20.4802L21.4846 14.1195H18.7921L19.7964 2.62473ZM7.53709 21.6829C7.53709 21.9106 7.35189 22.0958 7.12426 22.0958H2.50632C2.27868 22.0958 2.09348 21.9106 2.09348 21.6829V14.1835C2.09348 13.9559 2.27868 13.7707 2.50632 13.7707H7.12426C7.35189 13.7707 7.53709 13.9559 7.53709 14.1835V15.1662V20.5508V21.6829ZM9.63057 16.213H30.8445C31.4226 16.213 31.8913 15.7443 31.8913 15.1662C31.8913 14.5881 31.4226 14.1195 30.8445 14.1195H23.5859L22.6297 3.17657L50.1981 14.1195H35.0315C34.4534 14.1195 33.9847 14.5881 33.9847 15.1662C33.9847 15.7443 34.4534 16.213 35.0315 16.213H55.6661C55.668 16.213 55.67 16.2132 55.6719 16.2132C55.6732 16.2132 55.6743 16.213 55.6756 16.213H57.573L60.132 19.5041H42.2077H30.8444H9.63043L9.63057 16.213ZM18.1163 29.9403L21.2752 32.2274L17.9078 36.8786L18.1163 29.9403ZM18.2979 51.7421L22.6571 46.296L22.9214 55.092L18.2979 51.7421ZM18.6221 39.4618L22.2991 34.383L22.5369 42.298L18.6221 39.4618ZM17.771 41.4305L21.6314 44.2272L17.533 49.3472L17.771 41.4305ZM21.6314 56.7425L17.1423 62.3508L17.4028 53.679L21.6314 56.7425ZM18.9198 27.9376L21.9834 23.8747L22.1764 30.2954L18.9198 27.9376ZM21.0783 21.5975L18.2545 25.3426L18.3669 21.5975H21.0783ZM19.3491 62.9438L23.0196 58.3582L23.1574 62.9438H19.3491ZM41.1612 26.8183C41.1612 27.1598 40.8833 27.4376 40.5418 27.4376H32.5108C32.1693 27.4376 31.8914 27.1598 31.8914 26.8183V21.5975H41.1612V26.8183ZM61.7778 41.7215H56.1713V36.115L61.7778 41.7215ZM54.0778 35.9793V41.7216H48.3356L54.0778 35.9793ZM43.4361 43.815H66.5339V45.9693H43.4361V43.815Z" fill="#007396"/>
</g>
<defs>
<clipPath id="clip0_3_312">
<rect width="71" height="71" fill="white"/>
</clipPath>
</defs>
</svg>
