<svg width="74" height="74" viewBox="0 0 74 74" fill="none" xmlns="http://www.w3.org/2000/svg">
<path d="M72.9479 11.5757H63.509V10.902C63.509 9.09626 62.0398 7.62695 60.2272 7.62695C58.4214 7.62695 56.9521 9.09611 56.9521 10.902V11.5757H47.5134C46.1106 11.5757 46.1106 13.7456 47.5134 13.7456H56.9523V22.3432H53.9522C53.1273 20.3182 51.1151 18.9228 48.874 18.9228H46.2583C45.659 18.9228 45.1734 19.4086 45.1734 20.0078C45.1734 20.607 45.659 21.0927 46.2583 21.0927H48.874C50.3753 21.0927 51.7062 22.1273 52.077 23.567V26.0271C52.077 27.4298 54.2469 27.4298 54.2469 26.0271V24.5129H65.131C65.6757 24.619 65.8517 24.9304 65.6589 25.4471L64.6123 27.1295C63.8514 28.3525 62.5343 29.0826 61.0888 29.0826H53.2656C52.6663 29.0826 52.1807 29.5683 52.1807 30.1675V34.5989C52.1807 36.6781 50.318 37.8614 48.4375 37.8945H43.8632C42.791 29.7107 31.2063 29.7168 30.1373 37.8945H25.625C23.7301 37.856 21.8781 36.7255 21.8781 34.5989V30.1675C21.8781 29.5683 21.3925 29.0826 20.7932 29.0826H12.9696C11.5241 29.0826 10.2069 28.3525 9.44609 27.1295L8.39962 25.447C8.20679 24.9301 8.38269 24.6188 8.92734 24.5128H19.8141V26.0269C19.8141 27.4297 21.984 27.4297 21.984 26.0269V23.557C22.3582 22.1224 23.6865 21.0926 25.1843 21.0926H39.1563C39.7556 21.0926 40.2412 20.6068 40.2412 20.0076C40.2412 19.4085 39.7556 18.9227 39.1563 18.9227H25.1843C22.9433 18.9227 20.931 20.3179 20.1062 22.343H17.0478V13.7456H26.4867C27.8895 13.7456 27.8895 11.5757 26.4867 11.5757H17.0478V10.902C17.0478 9.09626 15.5786 7.62695 13.7661 7.62695C11.9603 7.62695 10.491 9.09611 10.491 10.902V11.5757H1.05207C-0.350691 11.5757 -0.350691 13.7456 1.05207 13.7456H10.491V22.3432H8.92719C6.77885 22.3432 5.41934 24.7649 6.55695 26.5936L7.60341 28.2759C8.763 30.1399 10.769 31.2527 12.9694 31.2527H19.7078V34.3836C16.1755 37.373 13.416 41.3109 11.7102 45.8049C11.2484 47.0216 13.1881 48.0251 13.7387 46.5749C15.1635 42.8216 17.3795 39.492 20.1957 36.8538C20.4975 37.5162 20.9279 38.1083 21.4549 38.5981C16.7303 43.1328 14.0328 49.7495 14.0328 56.8575C14.0328 57.4455 13.5521 57.9239 12.9612 57.9239C12.3702 57.9239 11.8894 57.4455 11.8894 56.8575C11.8894 55.3725 11.9986 53.8869 12.214 52.442C12.4207 51.0548 10.2746 50.7343 10.0678 52.1221C9.83667 53.6725 9.71949 55.2658 9.71949 56.8575C9.89713 61.15 16.0251 61.1505 16.2027 56.8575C16.2027 50.3798 18.7036 44.2416 23.3872 39.7625C23.8587 39.9264 24.3592 40.0277 24.8788 40.0563L27.6134 46.5501C28.417 48.4585 30.2765 49.6918 32.3508 49.6918H41.7073C43.7816 49.6918 45.6411 48.4587 46.4448 46.5502L49.1793 40.0563C49.6831 40.0285 50.1692 39.9326 50.628 39.7772C55.1908 43.9136 57.7972 50.1062 57.7972 56.8575C57.7972 58.642 59.2515 60.0938 61.0388 60.0938C62.8262 60.0938 64.2804 58.642 64.2804 56.8575C64.2804 47.9681 60.6632 39.8047 54.3503 34.4331V31.2527H61.0885C63.2889 31.2527 65.2949 30.1399 66.4545 28.2759L67.5011 26.5936C68.6387 24.7649 67.2791 22.3432 65.1307 22.3432H63.5088V13.7456H72.9477C74.3506 13.7456 74.3506 11.5757 72.9479 11.5757ZM12.6609 10.902C12.7112 9.44214 14.8264 9.4365 14.8778 10.902V11.5757H12.6609V10.902ZM12.6609 13.7456H14.8778V22.3432H12.6609V13.7456ZM37 33.8934C39.608 33.8934 41.7299 36.0087 41.7299 38.609C41.7299 41.2092 39.608 43.3246 37 43.3246C34.4733 43.3246 32.27 41.13 32.27 38.609C32.27 36.0087 34.3919 33.8934 37 33.8934ZM44.445 45.708C43.9809 46.8099 42.9064 47.5219 41.7073 47.5219H32.3508C31.1517 47.5219 30.0771 46.81 29.6132 45.708L27.2369 40.0647H30.2554C31.9377 47.2686 42.0651 47.2635 43.7446 40.0647H46.8213L44.445 45.708ZM62.1105 56.8575C62.0606 58.2676 60.0176 58.2698 59.9671 56.8575C59.9671 49.7346 57.2872 43.1634 52.5736 38.6255C53.104 38.1396 53.5386 37.5509 53.8451 36.8914C59.1144 41.8436 62.1105 49.0411 62.1105 56.8575ZM59.1222 10.902C59.1725 9.44214 61.2877 9.4365 61.3391 10.902V11.5757H59.1222V10.902ZM61.3391 22.3432H59.1222V13.7456H61.3391V22.3432Z" fill="#007396"/>
<path d="M36.9986 41.7743C38.4014 41.7743 38.4014 39.6044 36.9986 39.6044C36.3706 39.6044 35.8598 39.0959 35.8598 38.471C35.8598 37.0683 33.6899 37.0683 33.6899 38.471C33.6899 40.2926 35.1743 41.7743 36.9986 41.7743Z" fill="#007396"/>
<path d="M42.3818 58.8766C43.375 57.8859 41.8425 56.3496 40.8493 57.3403C38.7429 59.4413 35.3156 59.4416 33.2094 57.3403C32.2163 56.3495 30.6837 57.8858 31.6768 58.8766C34.6282 61.8208 39.4303 61.8202 42.3818 58.8766Z" fill="#007396"/>
<path d="M44.3887 61.1676C40.3306 65.2157 33.7277 65.2157 29.6696 61.1676C28.6762 60.1771 27.144 61.7131 28.1371 62.7039C33.0402 67.5949 41.018 67.5949 45.9212 62.7039C46.9143 61.7131 45.3821 60.1771 44.3887 61.1676Z" fill="#007396"/>
</svg>
