<svg width="30" height="31" viewBox="0 0 30 31" fill="none" xmlns="http://www.w3.org/2000/svg">
<path d="M28.6786 14.3182L25.7138 11.3534V1.70858C25.7138 1.22665 25.3231 0.835938 24.8412 0.835938H4.94496C4.46303 0.835938 4.07232 1.22665 4.07232 1.70858V11.3534L1.10761 14.3182C0.393328 15.0324 0 15.982 0 16.9921V28.0041C0 29.4477 1.1744 30.6221 2.61792 30.6221H27.1682C28.6117 30.6221 29.7861 29.4477 29.7861 28.0041V16.9921C29.7861 15.982 29.3928 15.0323 28.6786 14.3182ZM27.4445 15.5523C27.4523 15.5601 27.4601 15.568 27.4678 15.5759L25.7138 16.522V13.8216L27.4445 15.5523ZM23.9685 2.58122V17.4633L14.8931 22.3586L5.8176 17.4633V2.58122H23.9685ZM4.07232 13.8216V16.5219L2.31843 15.5759C2.32611 15.568 2.33385 15.5601 2.3417 15.5523L4.07232 13.8216ZM27.1682 28.8768H2.61792C2.13675 28.8768 1.74528 28.4853 1.74528 28.0041V17.2498L14.4788 24.1182C14.7374 24.2576 15.0487 24.2576 15.3073 24.1182L28.0409 17.2498V28.0041C28.0409 28.4853 27.6494 28.8768 27.1682 28.8768Z" fill="#006B8B"/>
<path d="M10.4642 17.4489C11.6821 18.3978 13.1991 18.9437 14.7358 18.9862C14.744 18.9864 14.7522 18.9865 14.7603 18.9865C15.231 18.9865 15.6191 18.6116 15.6322 18.1381C15.6455 17.6563 15.2658 17.2549 14.784 17.2416C12.348 17.1743 10.2129 15.4775 9.59169 13.1155C8.8436 10.2709 10.4546 7.34337 13.2594 6.45054C14.6824 5.9977 16.1928 6.13092 17.5126 6.82601C18.8286 7.51906 19.7912 8.6834 20.2243 10.1055C20.4964 11.1366 20.4056 12.0972 19.9215 13.3144C19.7948 13.633 19.403 14.374 18.5031 14.374C18.3632 14.374 18.2501 14.2814 18.1952 14.2262C18.0549 14.0852 17.9718 13.8767 17.9728 13.6689L18.0006 8.63715C18.0033 8.15522 17.6147 7.76236 17.1328 7.75968H17.1279C16.8148 7.75968 16.5398 7.92478 16.3859 8.17302C15.8741 7.82082 15.2758 7.63309 14.6389 7.63309C13.7072 7.63309 12.7938 8.05271 12.1331 8.78439C11.4595 9.53027 11.0885 10.5467 11.0885 11.6465C11.0885 12.7436 11.4378 13.7732 12.0723 14.5456C12.7249 15.3403 13.6357 15.796 14.5709 15.796C15.3372 15.796 16.037 15.5026 16.6009 15.0009C16.7016 15.1661 16.8212 15.3197 16.9582 15.4572C17.383 15.8841 17.9316 16.1193 18.5032 16.1193C20.1114 16.1193 21.1281 15.0035 21.5434 13.9594C22.1707 12.3819 22.2829 11.0503 21.9071 9.64191C21.9046 9.63283 21.9021 9.62376 21.8994 9.61474C21.3321 7.73536 20.0631 6.19661 18.326 5.28179C16.5893 4.36714 14.602 4.19168 12.7301 4.78752C10.9561 5.35218 9.48034 6.56946 8.57466 8.21502C7.66862 9.86111 7.43045 11.7592 7.90389 13.5594C8.31379 15.1184 9.19917 16.4634 10.4642 17.4489ZM14.5709 14.0507C13.732 14.0507 12.8338 13.0846 12.8338 11.6465C12.8338 10.2268 13.7516 9.37837 14.6389 9.37837C15.5816 9.37837 16.2399 10.303 16.2399 11.6269C16.2399 12.9634 15.4911 14.0507 14.5709 14.0507Z" fill="#006B8B"/>
</svg>
