<svg width="72" height="72" viewBox="0 0 72 72" fill="none" xmlns="http://www.w3.org/2000/svg">
<g clip-path="url(#clip0_3_327)">
<path d="M46.8128 0.123988C41.9181 0.122313 37.1311 1.55572 33.043 4.24727L27.4913 1.0461C26.9415 0.735197 26.2912 0.653144 25.6817 0.817807C25.0677 0.97968 24.5447 1.38269 24.2332 1.93585L22.4364 5.0505C21.1018 4.88081 19.751 4.88081 18.4164 5.0505L16.6269 1.94701C16.3148 1.38883 15.789 0.980796 15.1711 0.817249C14.5566 0.651469 13.9018 0.735755 13.3498 1.05224L7.11043 4.65307C6.56006 4.97179 6.15873 5.49704 5.9963 6.11216C5.83331 6.72672 5.92206 7.38146 6.24246 7.93127L8.03813 11.0443C7.21983 12.1081 6.54611 13.2759 6.03481 14.5167H2.43566C1.11165 14.5184 0.0382703 15.5912 0.037154 16.9152V24.1118C0.0382703 25.4358 1.11165 26.5087 2.43566 26.5103H6.03481C6.54667 27.7512 7.21983 28.9189 8.03813 29.9828L6.24581 33.0902C5.92318 33.6406 5.83275 34.297 5.99574 34.9138C6.15873 35.5306 6.56118 36.0569 7.11378 36.3762L13.3615 39.9809C13.9108 40.2918 14.561 40.3739 15.1711 40.2092C15.7851 40.0479 16.3076 39.6444 16.6196 39.0912L18.4164 35.9765C19.751 36.1474 21.1018 36.1474 22.4364 35.9765L23.7141 38.1976L22.2533 39.6589C21.1705 40.7295 20.8919 42.3722 21.5617 43.7397L17.8482 47.4528C16.4784 46.827 14.8664 47.0966 13.7746 48.1337L1.0536 60.8553C0.378761 61.5301 -0.000244141 62.4455 -0.000244141 63.3994C-0.000244141 64.3539 0.378761 65.2694 1.0536 65.9442L6.14198 71.0326C7.54804 72.4359 9.82487 72.4359 11.2309 71.0326L23.9524 58.3116C25.0241 57.2332 25.301 55.5977 24.6446 54.2269L28.347 50.5239C29.2473 50.9626 30.2911 51 31.2205 50.6266V51.6972C31.2222 53.0212 32.2956 54.0946 33.6196 54.0962H37.2187C37.73 55.3371 38.4038 56.5042 39.222 57.5681L37.4297 60.6755C37.1071 61.2259 37.0167 61.8823 37.1797 62.4991C37.3427 63.1165 37.7451 63.6428 38.2977 63.9621L44.5454 67.5663C45.0947 67.8777 45.745 67.9598 46.355 67.7946C46.969 67.6333 47.4915 67.2302 47.8035 66.6765L49.6003 63.5624C50.9349 63.7321 52.2857 63.7321 53.6203 63.5624L55.4099 66.6654C55.7219 67.2241 56.2471 67.6316 56.8656 67.7951C57.4796 67.9609 58.1344 67.8766 58.6864 67.5601L64.9257 63.9599C65.4761 63.6406 65.8769 63.1159 66.0399 62.5008C66.2029 61.8857 66.1141 61.2309 65.7937 60.6817L63.9986 57.5681C64.8163 56.5042 65.4901 55.3371 66.0014 54.0962H69.6005C70.9251 54.0946 71.9979 53.0212 71.9996 51.6972V44.5011C71.9979 43.1771 70.9251 42.1037 69.6005 42.102H65.9991C65.9539 41.991 65.8903 41.876 65.8406 41.7632C72.3032 34.3193 73.8209 23.787 69.7239 14.8215C65.6268 5.85595 56.6702 0.110033 46.8128 0.123988ZM69.6005 25.3108C69.5921 33.1477 65.5543 40.4292 58.9119 44.5871C58.8851 44.6066 58.8516 44.6172 58.8271 44.6384C54.3421 47.4924 48.9807 48.6372 43.7215 47.8647C43.5413 47.7815 43.3425 47.7447 43.1444 47.7575C43.1293 47.7592 43.1176 47.7681 43.1031 47.7704C31.1692 45.7938 22.8623 34.8334 24.1852 22.8096C25.5081 10.7858 35.9991 1.89342 48.077 2.55878C60.1555 3.22357 69.6067 13.2145 69.6005 25.3108ZM58.8064 48.0991C58.8109 51.6224 56.2605 54.6299 52.7836 55.2003C49.3067 55.7708 45.9286 53.7368 44.8072 50.3961C45.4709 50.4491 46.1357 50.4976 46.8128 50.4976C50.984 50.5027 55.0906 49.4644 58.7584 47.4779C58.7763 47.685 58.8064 47.892 58.8064 48.0991ZM21.6259 25.3108C21.6259 26.0766 21.6739 26.8302 21.7404 27.5787C19.0583 28.0788 16.3243 27.0177 14.681 24.8397C13.0383 22.6617 12.7693 19.7418 13.9861 17.2998C15.2035 14.8583 17.698 13.3155 20.4264 13.3172C21.7443 13.3183 23.0353 13.6884 24.1534 14.3855C22.4945 17.7888 21.6298 21.5247 21.6259 25.3108ZM18.0033 33.4865C17.5043 33.3927 17.0003 33.626 16.748 34.067L14.5493 37.8967L8.32001 34.2942L10.5271 30.4684C10.781 30.028 10.7297 29.4754 10.3992 29.0891C9.34315 27.8623 8.52709 26.4473 7.99459 24.919C7.82769 24.4356 7.37277 24.1118 6.86148 24.1118H2.43566V16.9152H6.86148C7.37222 16.9152 7.82658 16.5915 7.99403 16.1086C8.52709 14.5803 9.34315 13.1653 10.3998 11.9385C10.7302 11.5522 10.7816 10.9996 10.5271 10.5592L8.31275 6.72839L14.5415 3.1337L16.7485 6.95948C17.0003 7.40156 17.5043 7.63432 18.0039 7.53999C19.6053 7.24862 21.2469 7.24862 22.8484 7.53999C23.3474 7.6332 23.8508 7.401 24.1043 6.9606L26.3035 3.13035L30.9208 5.79288C28.6964 7.61646 26.798 9.80565 25.3077 12.2661C23.8335 11.3808 22.1462 10.9148 20.4264 10.9187C16.791 10.9041 13.4603 12.9449 11.822 16.1901C10.1843 19.436 10.5209 23.3282 12.6922 26.2435C14.863 29.1595 18.4951 30.5979 22.0742 29.9594C22.3002 31.1544 22.6139 32.3316 23.0125 33.4809C22.9578 33.4792 22.9031 33.4809 22.8484 33.4865C21.2469 33.7779 19.6059 33.7779 18.0045 33.4865H18.0033ZM26.4916 48.9866L23.104 52.3748L21.4071 50.679L19.7108 48.9827L23.104 45.5907L23.1782 45.6649L26.4916 48.9866ZM9.53461 69.3363C9.06574 69.8046 8.30661 69.8046 7.83774 69.3363L2.74936 64.2473C2.52441 64.0229 2.39826 63.7176 2.39826 63.4C2.39826 63.0818 2.52441 62.7765 2.74936 62.5521L4.44567 60.8558L11.2309 67.6405L9.53461 69.3363ZM22.2561 56.6153L12.9267 65.9448L6.14198 59.1595L15.4709 49.8306C15.9453 49.3779 16.6916 49.3779 17.1666 49.8306L22.2556 54.9196C22.7228 55.3884 22.7228 56.1464 22.2561 56.6153ZM29.0503 48.1505L29.0397 48.1343L24.874 43.9686L23.9496 43.0415C23.4847 42.5754 23.4847 41.8213 23.9496 41.3552L25.9284 39.3759C27.7347 42.0479 30.0338 44.3509 32.7019 46.1622L30.7327 48.1388C30.2705 48.6048 29.5186 48.6099 29.0498 48.1505H29.0503ZM69.6005 44.5011V51.6972H65.1753C64.6645 51.6977 64.2096 52.0209 64.0421 52.5037C63.5096 54.0326 62.6941 55.447 61.6381 56.6739C61.3071 57.0602 61.2563 57.6128 61.5102 58.0532L63.724 61.8845L57.4952 65.4792L55.2882 61.6529C55.0348 61.2131 54.5318 60.9803 54.0323 61.0724C52.4309 61.3643 50.7898 61.3643 49.1884 61.0724C48.6888 60.9792 48.1853 61.2119 47.9325 61.6529L45.7332 65.4826L39.5039 61.8801L41.711 58.0537C41.965 57.6139 41.9136 57.0607 41.5832 56.6745C40.5265 55.4482 39.711 54.0332 39.1785 52.5043C39.0111 52.0215 38.5561 51.6972 38.0454 51.6972H33.6196V48.6389L34.8068 47.4472C37.1255 48.7031 39.6284 49.5845 42.2223 50.0584C42.8832 53.4499 45.3196 56.2229 48.5978 57.3147C51.876 58.4071 55.4886 57.6491 58.0517 55.3315C60.6144 53.0139 61.7307 49.4957 60.9733 46.1243C62.0528 45.3797 63.0726 44.5519 64.0237 43.6493C64.031 43.6705 64.041 43.694 64.0488 43.7146C64.2213 44.1874 64.6718 44.5017 65.1753 44.5011H69.6005Z" fill="#007396"/>
<path d="M26.6743 22.4827C26.6659 22.5106 26.6732 22.538 26.667 22.5659C25.8225 28.8488 27.9542 35.1668 32.4331 39.6535C32.6887 39.9086 32.9628 40.1324 33.2279 40.3713C33.2352 40.3808 33.2474 40.3864 33.2547 40.3953C38.7801 45.4011 46.5986 46.9886 53.6389 44.5348C60.6793 42.0805 65.8168 35.9767 67.0336 28.621C68.2499 21.2653 65.3518 13.8326 59.4764 9.24209C59.4234 9.1952 59.3659 9.15278 59.305 9.11594C53.5586 4.65216 45.8651 3.59999 39.1307 6.35629C32.3968 9.11259 27.6489 15.2571 26.681 22.4688L26.6743 22.4827ZM44.8928 43.1031C47.6831 38.843 53.1935 37.3024 57.789 39.4972C54.1151 42.3155 49.4956 43.6071 44.8928 43.1031ZM59.7136 37.7998C56.7815 36.1018 53.2878 35.6575 50.0241 36.5679C46.7599 37.4777 44.0003 39.6652 42.3698 42.6359C39.9562 42.0224 37.6978 40.9105 35.7403 39.3716C36.2968 38.4473 36.9259 37.5681 37.6219 36.7437C37.9557 36.3585 38.0082 35.8037 37.7531 35.3627L34.3448 29.4455C34.2572 29.2964 34.2326 29.1189 34.2762 28.9515C34.3203 28.7846 34.4291 28.6422 34.5787 28.5557L44.2034 22.9957C44.3536 22.908 44.5328 22.8846 44.7013 22.9304C44.8666 22.975 45.0067 23.085 45.0898 23.2346L48.4958 29.148C48.7509 29.5845 49.2511 29.8167 49.7495 29.729C52.3043 29.2618 54.9227 29.2618 57.4775 29.729C57.976 29.8189 58.4772 29.5861 58.7307 29.148L62.1406 23.2284C62.2232 23.0811 62.3616 22.9734 62.5246 22.9298C62.691 22.8846 62.8679 22.9075 63.0175 22.9929L64.773 24.0015C65.1347 29.1122 63.2938 34.1342 59.7142 37.7998H59.7136ZM64.2996 20.9622L64.2081 20.9098C63.5081 20.5095 62.6776 20.4035 61.8995 20.6145C61.1197 20.8221 60.456 21.3351 60.058 22.0373L57.0656 27.2317C54.7759 26.894 52.4494 26.894 50.1598 27.2317L47.1724 22.044C46.7744 21.3384 46.1091 20.8232 45.3265 20.6145C44.5456 20.4029 43.7128 20.5107 43.0112 20.9142L33.3764 26.4804C32.6764 26.8851 32.1662 27.5521 31.9586 28.3341C31.751 29.1156 31.8626 29.9478 32.2695 30.6467L35.2597 35.8378C34.7824 36.4451 34.3365 37.0764 33.9234 37.7294C30.4772 34.1638 28.662 29.3299 28.9098 24.3772L30.888 24.9493C31.137 25.0129 31.3932 25.0459 31.6505 25.0459C33.037 25.0425 34.2455 24.1014 34.5888 22.7579L36.0947 16.9629C37.2424 16.8188 38.3777 16.5917 39.4924 16.2835C40.6032 15.9754 41.6905 15.5881 42.746 15.1248L47.0083 19.3346C48.2084 20.5134 50.1347 20.5056 51.3247 19.3161L58.7586 11.7796C59.0315 12.0213 59.3101 12.2529 59.5718 12.5147C61.8956 14.8412 63.5316 17.765 64.2996 20.9622ZM34.1294 12.5147C40.2069 6.45062 49.7199 5.51957 56.858 10.2909L49.6284 17.6193C49.5084 17.7465 49.3415 17.8191 49.1668 17.8219C48.9921 17.8241 48.8235 17.756 48.6996 17.6332L43.8423 12.8357C43.4817 12.4801 42.9369 12.3891 42.4803 12.6074C41.3137 13.1689 40.0997 13.6249 38.8527 13.9716C37.6035 14.3165 36.3253 14.5487 35.0342 14.6648C34.5301 14.7106 34.1087 15.0678 33.9815 15.5579L32.2645 22.1623C32.2237 22.327 32.1188 22.4688 31.9726 22.5558C31.8369 22.639 31.6745 22.6675 31.5182 22.6357L29.1738 21.9575C29.8269 18.379 31.5556 15.0846 34.1294 12.5147Z" fill="#007396"/>
</g>
<defs>
<clipPath id="clip0_3_327">
<rect width="72" height="72" fill="white"/>
</clipPath>
</defs>
</svg>
