<svg width="31" height="30" viewBox="0 0 31 30" fill="none" xmlns="http://www.w3.org/2000/svg">
<path d="M25.7401 24.0899L20.5464 19.0482C20.0704 18.5816 19.2597 18.5816 18.7838 19.0482C16.5404 21.2422 16.6344 21.1025 16.5874 21.1956C15.6826 21.9425 13.5381 21.4293 11.1059 19.0016C9.57839 17.5079 8.9614 16.2936 8.7206 15.5468C8.57953 15.0336 8.38576 14.0996 8.96059 13.5391L9.05464 13.4459L11.1051 11.4382C11.581 10.9716 11.581 10.1774 11.1051 9.71081L5.95348 4.76225C5.47756 4.29566 4.6668 4.29566 4.19089 4.76225C3.71497 5.22884 2.76314 6.16281 2.04643 6.8631C0.231944 8.6371 -0.385045 10.9243 0.231944 13.5391C0.900821 16.4334 3.14501 19.7019 6.81126 23.2965C9.91242 26.3313 14.3951 29.7861 18.783 29.7861C20.6396 29.7861 22.3081 29.1324 23.5948 27.919C23.6262 27.8879 23.6575 27.8569 23.6889 27.8258L25.7393 25.8181C26.2201 25.3515 26.2201 24.5573 25.7393 24.0907L25.7401 24.0899ZM5.04948 5.60227L10.2011 10.5974V10.644L8.53251 12.3248L3.38094 7.28311L5.04948 5.60227ZM17.1104 28.3848C14.254 27.7776 11.1059 25.7707 7.67472 22.4091C4.14467 18.9542 2.04724 15.8728 1.42538 13.2588C0.949467 11.2977 1.33134 9.57027 2.52315 8.1697L7.72175 13.2588C7.29286 13.9591 7.24097 14.9396 7.57581 15.9668C7.95768 17.2276 8.91438 18.5808 10.2481 19.9348C11.6288 21.2888 13.0103 22.1754 14.3011 22.5488C15.2059 22.8291 16.2526 22.8757 17.0633 22.4091L22.2619 27.4982C20.8812 28.4787 19.1608 28.8056 17.1104 28.3856V28.3848ZM23.1197 26.6108L17.973 21.569L19.6886 19.8882H19.7356L24.8353 24.9299L23.1197 26.6108Z" fill="#006B8B"/>
<path d="M27.9835 0H17.0155C15.6818 0 14.5832 1.07371 14.5832 2.38112V8.31024C14.5832 9.43054 15.3469 10.3645 16.3977 10.5982V13.0725C16.3977 13.3993 16.6806 13.6796 17.0155 13.6796C17.1614 13.6796 17.3503 13.633 17.4444 13.4925L20.3056 10.6914H27.9364C29.2701 10.6914 30.3687 9.61765 30.3687 8.31024V2.38112C30.4157 1.07371 29.318 0 27.9835 0ZM27.9835 9.52369H20.0696C19.9237 9.52369 19.7348 9.57027 19.6407 9.71081L17.6373 11.6719V10.1316C17.6373 9.80477 17.3495 9.5245 17.0155 9.5245C16.3507 9.5245 15.8229 9.01133 15.8229 8.35762V2.38112C15.8229 1.72742 16.3507 1.21425 17.0155 1.21425H27.9356C28.6004 1.21425 29.1283 1.72742 29.1283 2.38112L29.1753 8.35682C29.1753 9.01053 28.6475 9.52369 27.9827 9.52369H27.9835Z" fill="#006B8B"/>
<path d="M18.7181 5.98855C19.2388 5.98855 19.661 5.57039 19.661 5.05457C19.661 4.53875 19.2388 4.12059 18.7181 4.12059C18.1973 4.12059 17.7752 4.53875 17.7752 5.05457C17.7752 5.57039 18.1973 5.98855 18.7181 5.98855Z" fill="#006B8B"/>
<path d="M22.4881 5.98855C23.0089 5.98855 23.431 5.57039 23.431 5.05457C23.431 4.53875 23.0089 4.12059 22.4881 4.12059C21.9674 4.12059 21.5452 4.53875 21.5452 5.05457C21.5452 5.57039 21.9674 5.98855 22.4881 5.98855Z" fill="#006B8B"/>
<path d="M26.259 5.98855C26.7797 5.98855 27.2019 5.57039 27.2019 5.05457C27.2019 4.53875 26.7797 4.12059 26.259 4.12059C25.7382 4.12059 25.3161 4.53875 25.3161 5.05457C25.3161 5.57039 25.7382 5.98855 26.259 5.98855Z" fill="#006B8B"/>
</svg>
