<svg width="79" height="71" viewBox="0 0 79 71" fill="none" xmlns="http://www.w3.org/2000/svg">
<path d="M9.68576 0.623047C9.05834 0.623047 8.54913 1.13225 8.54913 1.75967V8.57941H4.00264C2.1221 8.57941 0.592773 10.1087 0.592773 11.9893V18.809C0.592773 20.6896 2.1221 22.2189 4.00264 22.2189H8.54913V28.4703H4.00264C2.1221 28.4703 0.592773 29.9996 0.592773 31.8802V38.6999C0.592773 40.5805 2.1221 42.1098 4.00264 42.1098H8.54913V48.3612H4.00264C2.1221 48.3612 0.592773 49.8905 0.592773 51.7711V58.5908C0.592773 60.4714 2.1221 62.0007 4.00264 62.0007H8.54913V68.8204C8.54913 69.4478 9.05834 69.957 9.68576 69.957C10.3132 69.957 10.8224 69.4478 10.8224 68.8204V1.75967C10.8224 1.13169 10.3132 0.623047 9.68576 0.623047ZM4.00264 19.9456C3.37579 19.9456 2.86602 19.4359 2.86602 18.809V11.9893C2.86602 11.3624 3.37579 10.8527 4.00264 10.8527H8.54913V19.9456H4.00264ZM4.00264 39.8365C3.37579 39.8365 2.86602 39.3268 2.86602 38.6999V31.8802C2.86602 31.2533 3.37579 30.7436 4.00264 30.7436H8.54913V39.8365H4.00264ZM4.00264 59.7274C3.37579 59.7274 2.86602 59.2177 2.86602 58.5908V51.7711C2.86602 51.1442 3.37579 50.6344 4.00264 50.6344H8.54913V59.7274H4.00264Z" fill="#007396"/>
<path d="M42.0798 45.5196C41.4524 45.5196 40.9432 46.0289 40.9432 46.6563V48.3612H17.6424V42.1098H36.3967C37.0241 42.1098 37.5333 41.6006 37.5333 40.9732C37.5333 40.3457 37.0241 39.8365 36.3967 39.8365H17.6424V30.7436H34.6917C35.3191 30.7436 35.8284 30.2343 35.8284 29.6069C35.8284 28.9795 35.3191 28.4703 34.6917 28.4703H17.6424V22.2189H38.1016C38.729 22.2189 39.2382 21.7097 39.2382 21.0823C39.2382 20.4548 38.729 19.9456 38.1016 19.9456H17.6424V10.8527H40.9432V17.1041C40.9432 17.7315 41.4524 18.2407 42.0798 18.2407C42.7072 18.2407 43.2164 17.7315 43.2164 17.1041V1.75967C43.2164 1.13225 42.7072 0.623047 42.0798 0.623047C41.4524 0.623047 40.9432 1.13225 40.9432 1.75967V8.57941H17.6424V1.75967C17.6424 1.13225 17.1332 0.623047 16.5058 0.623047C15.8783 0.623047 15.3691 1.13225 15.3691 1.75967V68.8204C15.3691 69.4478 15.8783 69.957 16.5058 69.957C17.1332 69.957 17.6424 69.4478 17.6424 68.8204V62.0007H40.9432V68.8204C40.9432 69.4478 41.4524 69.957 42.0798 69.957C42.7072 69.957 43.2164 69.4478 43.2164 68.8204V46.6563C43.2164 46.0283 42.7072 45.5196 42.0798 45.5196ZM17.6424 59.7274V50.6344H40.9432V59.7274H17.6424Z" fill="#007396"/>
<path d="M48.8991 15.9672C49.5265 15.9672 50.0357 15.458 50.0357 14.8306V10.8524H54.5822C55.209 10.8524 55.7188 11.3622 55.7188 11.989V14.8306C55.7188 15.458 56.228 15.9672 56.8554 15.9672C57.4828 15.9672 57.9921 15.458 57.9921 14.8306V11.989C57.9921 10.1085 56.4627 8.57916 54.5822 8.57916H50.0357V1.75943C50.0357 1.13201 49.5265 0.622803 48.8991 0.622803C48.2717 0.622803 47.7625 1.13201 47.7625 1.75943V14.8306C47.7625 15.458 48.2717 15.9672 48.8991 15.9672Z" fill="#007396"/>
<path d="M57.2014 18.295C56.8564 18.1847 56.4785 18.2461 56.1852 18.4598C55.892 18.6741 55.7192 19.015 55.7192 19.3776V29.6072C55.7192 31.1741 54.4445 32.4488 52.8777 32.4488C51.3108 32.4488 50.0361 31.1741 50.0361 29.6072V19.3776C50.0361 19.0145 49.8628 18.6741 49.5701 18.4598C49.2774 18.2461 48.9 18.1853 48.5539 18.295C42.302 20.2909 38.1016 25.9791 38.1016 32.4488C38.1016 38.2387 41.4222 43.4126 46.6262 45.8376V63.7059C46.6262 67.1527 49.4309 69.9573 52.8777 69.9573C56.3245 69.9573 59.1291 67.1527 59.1291 63.7059V45.8376C64.3331 43.4126 67.6538 38.2387 67.6538 32.4488C67.6538 25.9791 63.4534 20.2909 57.2014 18.295ZM57.5662 44.0395C57.1372 44.2134 56.8558 44.63 56.8558 45.0931V63.7059C56.8558 65.8996 55.0713 67.6841 52.8777 67.6841C50.684 67.6841 48.8995 65.8996 48.8995 63.7059V45.0931C48.8995 44.63 48.6187 44.2134 48.1891 44.0395C43.442 42.1175 40.3748 37.5676 40.3748 32.4488C40.3748 27.4994 43.2863 23.0881 47.7629 21.0342V29.6072C47.7629 32.4278 50.0577 34.722 52.8777 34.722C55.6976 34.722 57.9925 32.4278 57.9925 29.6072V21.0342C62.4691 23.0881 65.3805 27.4994 65.3805 32.4488C65.3805 37.5676 62.3133 42.1175 57.5662 44.0395Z" fill="#007396"/>
<path d="M52.8773 39.8359C52.2499 39.8359 51.7407 40.3451 51.7407 40.9726V58.5902C51.7407 59.2176 52.2499 59.7268 52.8773 59.7268C53.5048 59.7268 54.014 59.2176 54.014 58.5902V40.9726C54.014 40.3446 53.5048 39.8359 52.8773 39.8359Z" fill="#007396"/>
</svg>
