<svg width="96" height="72" viewBox="0 0 96 72" fill="none" xmlns="http://www.w3.org/2000/svg">
<path d="M2.16571 49.1417C2.37415 49.2764 2.613 49.3567 2.86046 49.3754C3.10792 49.3941 3.35613 49.3506 3.58244 49.2487L7.43276 47.5169V52.3528C7.43276 52.7471 7.58938 53.1252 7.86817 53.404C8.14697 53.6828 8.52509 53.8394 8.91936 53.8394C9.1318 53.84 9.34182 53.7944 9.53482 53.7056L11.8926 52.6338V70.1921C11.8926 70.5863 12.0492 70.9645 12.328 71.2433C12.6068 71.5221 12.9849 71.6787 13.3792 71.6787H81.7631C82.1574 71.6787 82.5355 71.5221 82.8143 71.2433C83.0931 70.9645 83.2497 70.5863 83.2497 70.1921V20.199L91.2982 16.5404C91.4801 16.4578 91.6434 16.3393 91.7785 16.1921C91.9136 16.0449 92.0176 15.872 92.0843 15.6837C92.1511 15.4954 92.1792 15.2956 92.167 15.0961C92.1548 14.8967 92.1025 14.7018 92.0133 14.5231L89.9394 10.3859L92.7744 9.11035C92.9572 9.02827 93.1215 8.91009 93.2574 8.76291C93.3934 8.61573 93.4982 8.44259 93.5655 8.25388C93.6329 8.06518 93.6614 7.86481 93.6493 7.66481C93.6373 7.46481 93.5849 7.26931 93.4954 7.09005L90.5222 1.14363C90.3507 0.80206 90.0542 0.539672 89.6943 0.410948C89.3345 0.282223 88.9388 0.297051 88.5896 0.452353L2.3664 39.1041C2.10456 39.2212 1.88215 39.4114 1.726 39.652C1.56985 39.8925 1.48661 40.1731 1.48633 40.4599V47.893C1.48626 48.1413 1.5484 48.3857 1.66708 48.6038C1.78575 48.8219 1.95718 49.0069 2.16571 49.1417ZM17.839 68.7055H14.8658V51.2824L17.839 49.9311V68.7055ZM32.7051 68.7055H20.8122V48.5798L32.7051 43.173V68.7055ZM38.6515 68.7055H35.6783V41.8217L38.6515 40.4703V68.7055ZM53.5176 68.7055H41.6247V39.122L53.5176 33.7167V68.7055ZM59.464 68.7055H56.4908V32.3624L59.464 31.011V68.7055ZM74.3301 68.7055H62.4372V29.6582L74.3301 24.2559V68.7055ZM80.2765 68.7055H77.3033V22.9016L80.2765 21.5503V68.7055ZM10.406 50.0441V46.1789L87.2308 11.6079L88.6639 14.474L10.406 50.0441ZM4.45954 41.4218L88.5034 3.74816L90.1476 7.03505L4.45954 45.5932V41.4218Z" fill="#F8F8F8"/>
</svg>
